<svg width="375" height="356" viewBox="0 0 375 356" fill="none" xmlns="http://www.w3.org/2000/svg">
<g clip-path="url(#clip0_481_2)">
<g filter="url(#filter0_d_481_2)">
<path d="M-51.716 110.61L19.028 181.37C28.3141 190.658 39.3391 198.027 51.4732 203.054C63.6073 208.081 76.6128 210.668 89.747 210.668H100.777C113.911 210.668 126.917 213.255 139.051 218.282C151.185 223.309 162.21 230.678 171.496 239.966L247.214 315.702C256.5 324.99 267.525 332.359 279.659 337.386C291.793 342.413 304.799 345 317.933 345H539.604C567.111 345 589.409 322.701 589.409 295.195C589.409 281.988 584.163 269.322 574.826 259.982L521.991 207.134C514.632 199.774 514.634 187.84 521.994 180.481C525.528 176.948 530.321 174.963 535.319 174.963C545.727 174.963 554.165 166.525 554.165 156.117C554.165 151.12 552.18 146.327 548.647 142.792L440.571 34.691C431.285 25.4025 420.26 18.0343 408.125 13.0073C395.991 7.98026 382.985 5.39292 369.851 5.393H257.837C244.973 5.39295 232.234 2.85871 220.349 -2.065C208.464 -6.98871 197.666 -14.2054 188.57 -23.303C179.474 -32.401 168.675 -39.618 156.79 -44.5419C144.905 -49.4658 132.166 -52.0001 119.301 -52L-9.236 -52C-28.671 -52 -44.426 -36.245 -44.426 -16.81C-44.426 -7.47852 -40.7196 1.47087 -34.122 8.07L-16.526 25.669C-6.811 35.386 -6.81299 51.139 -16.53 60.854C-21.1956 65.5184 -27.5227 68.1388 -34.12 68.139C-47.862 68.139 -59 79.279 -59 93.019C-59.0001 99.6162 -56.38 105.943 -51.716 110.609V110.61Z" fill="black"/>
</g>
<path d="M-51.716 110.61L19.028 181.37C28.3141 190.658 39.3391 198.027 51.4732 203.054C63.6073 208.081 76.6128 210.668 89.747 210.668H100.777C113.911 210.668 126.917 213.255 139.051 218.282C151.185 223.309 162.21 230.678 171.496 239.966L247.214 315.702C256.5 324.99 267.525 332.359 279.659 337.386C291.793 342.413 304.799 345 317.933 345H539.604C567.111 345 589.409 322.701 589.409 295.195C589.409 281.988 584.163 269.322 574.826 259.982L521.991 207.134C514.632 199.774 514.634 187.84 521.994 180.481C525.528 176.948 530.321 174.963 535.319 174.963C545.727 174.963 554.165 166.525 554.165 156.117C554.165 151.12 552.18 146.327 548.647 142.792L440.571 34.691C431.285 25.4025 420.26 18.0343 408.125 13.0073C395.991 7.98026 382.985 5.39292 369.851 5.393H257.837C244.973 5.39295 232.234 2.85871 220.349 -2.065C208.464 -6.98871 197.666 -14.2054 188.57 -23.303C179.474 -32.401 168.675 -39.618 156.79 -44.5419C144.905 -49.4658 132.166 -52.0001 119.301 -52L-9.236 -52C-28.671 -52 -44.426 -36.245 -44.426 -16.81C-44.426 -7.47852 -40.7196 1.47087 -34.122 8.07L-16.526 25.669C-6.811 35.386 -6.81299 51.139 -16.53 60.854C-21.1956 65.5184 -27.5227 68.1388 -34.12 68.139C-47.862 68.139 -59 79.279 -59 93.019C-59.0001 99.6162 -56.38 105.943 -51.716 110.609V110.61Z" fill="#2D314D"/>
<path fill-rule="evenodd" clip-rule="evenodd" d="M162.284 111.61L233.028 182.37C242.314 191.658 253.339 199.027 265.473 204.054C277.607 209.081 290.613 211.668 303.747 211.668H314.777C327.911 211.668 340.917 214.255 353.051 219.282C365.185 224.309 376.21 231.678 385.496 240.966L461.214 316.702C470.5 325.99 481.525 333.359 493.659 338.386C505.793 343.413 518.799 346 531.933 346H753.604C781.111 346 803.409 323.701 803.409 296.195C803.409 282.988 798.164 270.322 788.826 260.982L735.991 208.134C728.632 200.774 728.634 188.84 735.994 181.481C739.528 177.948 744.321 175.963 749.319 175.963C759.727 175.963 768.165 167.525 768.165 157.117C768.165 152.12 766.18 147.327 762.647 143.792L654.571 35.691C645.285 26.4025 634.26 19.0343 622.125 14.0073C609.991 8.98026 596.985 6.39292 583.851 6.393H471.837C458.973 6.39295 446.234 3.85871 434.349 -1.065C422.464 -5.98871 411.666 -13.2054 402.57 -22.303C393.474 -31.401 382.675 -38.618 370.79 -43.5419C358.905 -48.4658 346.166 -51.0001 333.301 -51H204.764C185.329 -51 169.574 -35.245 169.574 -15.81C169.574 -6.47852 173.28 2.47087 179.878 9.07L197.473 26.669C207.188 36.386 207.186 52.139 197.469 61.854C192.803 66.5184 186.476 69.1388 179.879 69.139C166.137 69.139 154.999 80.279 154.999 94.019C154.999 100.616 157.619 106.943 162.283 111.609L162.284 111.61Z" fill="url(#paint0_linear_481_2)"/>
</g>
<defs>
<filter id="filter0_d_481_2" x="-136" y="-127" width="802.409" height="551" filterUnits="userSpaceOnUse" color-interpolation-filters="sRGB">
<feFlood flood-opacity="0" result="BackgroundImageFix"/>
<feColorMatrix in="SourceAlpha" type="matrix" values="0 0 0 0 0 0 0 0 0 0 0 0 0 0 0 0 0 0 127 0" result="hardAlpha"/>
<feOffset dy="2"/>
<feGaussianBlur stdDeviation="38.5"/>
<feColorMatrix type="matrix" values="0 0 0 0 0 0 0 0 0 0 0 0 0 0 0 0 0 0 0.0240111 0"/>
<feBlend mode="normal" in2="BackgroundImageFix" result="effect1_dropShadow_481_2"/>
<feBlend mode="normal" in="SourceGraphic" in2="effect1_dropShadow_481_2" result="shape"/>
</filter>
<linearGradient id="paint0_linear_481_2" x1="154.999" y1="92.4718" x2="732.014" y2="353.734" gradientUnits="userSpaceOnUse">
<stop stop-color="#33D35E"/>
<stop offset="1" stop-color="#2AB6D9"/>
</linearGradient>
<clipPath id="clip0_481_2">
<rect width="375" height="356" fill="white"/>
</clipPath>
</defs>
</svg>
